<mxfile host="app.diagrams.net" modified="2024-02-24T00:29:15.963Z" agent="Mozilla/5.0 (Windows NT 10.0; Win64; x64) AppleWebKit/537.36 (KHTML, like Gecko) Chrome/121.0.0.0 Safari/537.36 OPR/107.0.0.0" version="23.1.6" etag="R3W6L2e8K5HZe0uw3Sbg" type="github">
  <diagram name="Page-1" id="rTvxbZQfSSwWl0d4ifKL">
    <mxGraphModel>
      <root>
        <mxCell id="0" />
        <mxCell id="1" parent="0" />
      </root>
    </mxGraphModel>
  </diagram>
</mxfile>
